# xmcd CD database file
#
# Track frame offsets:
#	150
#	19846
#	32343
#	48612
#	67445
#	86680
#	100003
#	115113
#	127542
#	144775
#	163642
#	180655
#	195871
#	221133
#
# Disc length: 3194 seconds
#
# Revision: 0
# Processed by: cddbd v1.5.1PL0 Copyright (c) Steve Scherf et al.
# Submitted via: CDex 1.51
#
DISCID=b50c780e
DTITLE=New Art Saxophone Quartet - Guarda!
DYEAR=2003
DGENRE=Jazz
TTITLE0=L'aual Da Tuoi
TTITLE1=L'istorgia Dals Nonins
TTITLE2=Utschels
TTITLE3=Il Chant Dals Craps
TTITLE4=In Baselgia
TTITLE5=Macun
TTITLE6=Il Peschin
TTITLE7=Il Chant Dal Vent
TTITLE8=Uorsin
TTITLE9=Urezzas Illa Naiv
TTITLE10=Flurina
TTITLE11=A Mezzanot
TTITLE12=Lai Blau
TTITLE13=Epilog
EXTD=YEAR: 2003
EXTT0=
EXTT1=
EXTT2=
EXTT3=
EXTT4=
EXTT5=
EXTT6=
EXTT7=
EXTT8=
EXTT9=
EXTT10=
EXTT11=
EXTT12=
EXTT13=
PLAYORDER=
